<mxfile host="app.diagrams.net" agent="Mozilla/5.0 (X11; Linux x86_64) AppleWebKit/537.36 (KHTML, like Gecko) Chrome/127.0.0.0 Safari/537.36 OPR/113.0.0.0" version="24.7.16">
  <diagram name="Page-1" id="gUWhoODglxjBxta9EbK4">
    <mxGraphModel dx="2207" dy="1956" grid="0" gridSize="10" guides="1" tooltips="1" connect="1" arrows="1" fold="1" page="1" pageScale="1" pageWidth="827" pageHeight="1169" math="0" shadow="0">
      <root>
        <mxCell id="0" />
        <mxCell id="1" parent="0" />
        <mxCell id="3g1q_-ZsU1hOk7NLVg47-5" value="" style="whiteSpace=wrap;html=1;" parent="1" vertex="1">
          <mxGeometry x="530" y="240" width="60" height="60" as="geometry" />
        </mxCell>
        <mxCell id="ZttpDixC8CZAMg3ueifD-7" style="rounded=0;orthogonalLoop=1;jettySize=auto;html=1;exitX=1;exitY=0.5;exitDx=0;exitDy=0;endArrow=none;endFill=0;" parent="1" source="ZttpDixC8CZAMg3ueifD-1" target="ZttpDixC8CZAMg3ueifD-4" edge="1">
          <mxGeometry relative="1" as="geometry" />
        </mxCell>
        <mxCell id="ZttpDixC8CZAMg3ueifD-8" style="edgeStyle=orthogonalEdgeStyle;rounded=0;orthogonalLoop=1;jettySize=auto;html=1;exitX=0.5;exitY=0;exitDx=0;exitDy=0;endArrow=none;endFill=0;" parent="1" source="ZttpDixC8CZAMg3ueifD-1" edge="1">
          <mxGeometry relative="1" as="geometry">
            <mxPoint x="414" y="290" as="targetPoint" />
          </mxGeometry>
        </mxCell>
        <mxCell id="ZttpDixC8CZAMg3ueifD-1" value="" style="image;html=1;image=img/lib/clip_art/networking/Firewall_02_128x128.png;direction=east;flipH=1;" parent="1" vertex="1">
          <mxGeometry x="364" y="350" width="100" height="100" as="geometry" />
        </mxCell>
        <mxCell id="ZttpDixC8CZAMg3ueifD-5" style="edgeStyle=orthogonalEdgeStyle;rounded=0;orthogonalLoop=1;jettySize=auto;html=1;exitX=0.875;exitY=0.5;exitDx=0;exitDy=0;exitPerimeter=0;endArrow=none;endFill=0;" parent="1" source="ZttpDixC8CZAMg3ueifD-2" target="ZttpDixC8CZAMg3ueifD-1" edge="1">
          <mxGeometry relative="1" as="geometry" />
        </mxCell>
        <mxCell id="ZttpDixC8CZAMg3ueifD-11" style="rounded=0;orthogonalLoop=1;jettySize=auto;html=1;exitX=0.4;exitY=0.1;exitDx=0;exitDy=0;exitPerimeter=0;endArrow=none;endFill=0;" parent="1" source="ZttpDixC8CZAMg3ueifD-2" target="ZttpDixC8CZAMg3ueifD-9" edge="1">
          <mxGeometry relative="1" as="geometry" />
        </mxCell>
        <mxCell id="ZttpDixC8CZAMg3ueifD-33" style="rounded=0;orthogonalLoop=1;jettySize=auto;html=1;exitX=0.625;exitY=0.2;exitDx=0;exitDy=0;exitPerimeter=0;strokeColor=none;" parent="1" source="ZttpDixC8CZAMg3ueifD-2" target="ZttpDixC8CZAMg3ueifD-32" edge="1">
          <mxGeometry relative="1" as="geometry" />
        </mxCell>
        <mxCell id="ZttpDixC8CZAMg3ueifD-34" style="rounded=0;orthogonalLoop=1;jettySize=auto;html=1;exitX=0.625;exitY=0.2;exitDx=0;exitDy=0;exitPerimeter=0;endArrow=none;endFill=0;strokeColor=#808080;" parent="1" source="ZttpDixC8CZAMg3ueifD-2" target="ZttpDixC8CZAMg3ueifD-32" edge="1">
          <mxGeometry relative="1" as="geometry" />
        </mxCell>
        <mxCell id="ZttpDixC8CZAMg3ueifD-42" style="rounded=0;orthogonalLoop=1;jettySize=auto;html=1;exitX=0.25;exitY=0.25;exitDx=0;exitDy=0;exitPerimeter=0;entryX=-0.126;entryY=0.9;entryDx=0;entryDy=0;entryPerimeter=0;" parent="1" source="ZttpDixC8CZAMg3ueifD-2" target="ZttpDixC8CZAMg3ueifD-39" edge="1">
          <mxGeometry relative="1" as="geometry" />
        </mxCell>
        <mxCell id="ZttpDixC8CZAMg3ueifD-2" value="" style="ellipse;shape=cloud;whiteSpace=wrap;html=1;fillColor=#ffe6cc;strokeColor=#d79b00;" parent="1" vertex="1">
          <mxGeometry x="70" y="335" width="230" height="130" as="geometry" />
        </mxCell>
        <mxCell id="ZttpDixC8CZAMg3ueifD-36" style="rounded=0;orthogonalLoop=1;jettySize=auto;html=1;exitX=0.5;exitY=0;exitDx=0;exitDy=0;endArrow=none;endFill=0;strokeColor=#808080;" parent="1" source="ZttpDixC8CZAMg3ueifD-15" target="ZttpDixC8CZAMg3ueifD-32" edge="1">
          <mxGeometry relative="1" as="geometry" />
        </mxCell>
        <mxCell id="ZttpDixC8CZAMg3ueifD-46" style="rounded=0;orthogonalLoop=1;jettySize=auto;html=1;exitX=0.88;exitY=0.25;exitDx=0;exitDy=0;exitPerimeter=0;entryX=0.174;entryY=1.029;entryDx=0;entryDy=0;entryPerimeter=0;endArrow=none;endFill=0;" parent="1" source="ZttpDixC8CZAMg3ueifD-3" target="ZttpDixC8CZAMg3ueifD-44" edge="1">
          <mxGeometry relative="1" as="geometry" />
        </mxCell>
        <mxCell id="3g1q_-ZsU1hOk7NLVg47-6" style="rounded=0;orthogonalLoop=1;jettySize=auto;html=1;exitX=0.8;exitY=0.8;exitDx=0;exitDy=0;exitPerimeter=0;entryX=0;entryY=0.5;entryDx=0;entryDy=0;endArrow=none;endFill=0;" parent="1" source="ZttpDixC8CZAMg3ueifD-3" target="3g1q_-ZsU1hOk7NLVg47-5" edge="1">
          <mxGeometry relative="1" as="geometry" />
        </mxCell>
        <mxCell id="ZttpDixC8CZAMg3ueifD-3" value="" style="ellipse;shape=cloud;whiteSpace=wrap;html=1;fillColor=#dae8fc;strokeColor=#6c8ebf;" parent="1" vertex="1">
          <mxGeometry x="300" y="160" width="220" height="130" as="geometry" />
        </mxCell>
        <mxCell id="ZttpDixC8CZAMg3ueifD-43" style="edgeStyle=orthogonalEdgeStyle;rounded=0;orthogonalLoop=1;jettySize=auto;html=1;exitX=0.4;exitY=0.1;exitDx=0;exitDy=0;exitPerimeter=0;endArrow=none;endFill=0;strokeColor=#808080;" parent="1" source="ZttpDixC8CZAMg3ueifD-4" target="ZttpDixC8CZAMg3ueifD-32" edge="1">
          <mxGeometry relative="1" as="geometry">
            <Array as="points">
              <mxPoint x="622" y="30" />
            </Array>
          </mxGeometry>
        </mxCell>
        <mxCell id="3g1q_-ZsU1hOk7NLVg47-2" style="rounded=0;orthogonalLoop=1;jettySize=auto;html=1;exitX=0.625;exitY=0.2;exitDx=0;exitDy=0;exitPerimeter=0;endArrow=none;endFill=0;" parent="1" source="ZttpDixC8CZAMg3ueifD-4" target="3g1q_-ZsU1hOk7NLVg47-1" edge="1">
          <mxGeometry relative="1" as="geometry" />
        </mxCell>
        <mxCell id="ZttpDixC8CZAMg3ueifD-4" value="" style="ellipse;shape=cloud;whiteSpace=wrap;html=1;fillColor=#f5f5f5;fontColor=#333333;strokeColor=#666666;" parent="1" vertex="1">
          <mxGeometry x="530" y="340" width="230" height="130" as="geometry" />
        </mxCell>
        <mxCell id="ZttpDixC8CZAMg3ueifD-9" value="" style="image;points=[];aspect=fixed;html=1;align=center;shadow=0;dashed=0;image=img/lib/allied_telesis/computer_and_terminals/Server_Desktop.svg;" parent="1" vertex="1">
          <mxGeometry x="109.76" y="190" width="80.47" height="102" as="geometry" />
        </mxCell>
        <mxCell id="ZttpDixC8CZAMg3ueifD-10" value="" style="image;aspect=fixed;html=1;points=[];align=center;fontSize=12;image=img/lib/azure2/networking/DNS_Zones.svg;" parent="1" vertex="1">
          <mxGeometry x="150" y="230" width="30" height="30" as="geometry" />
        </mxCell>
        <mxCell id="ZttpDixC8CZAMg3ueifD-14" value="&lt;div&gt;Internet&lt;/div&gt;&lt;div&gt;192.42.0.0/16&lt;/div&gt;" style="text;strokeColor=none;align=center;fillColor=none;html=1;verticalAlign=middle;whiteSpace=wrap;rounded=0;" parent="1" vertex="1">
          <mxGeometry x="140" y="385" width="90" height="40" as="geometry" />
        </mxCell>
        <mxCell id="ZttpDixC8CZAMg3ueifD-15" value="&lt;div&gt;DMZ&lt;br&gt;    172.17.100.0/24&lt;/div&gt;" style="text;strokeColor=none;align=center;fillColor=none;html=1;verticalAlign=middle;whiteSpace=wrap;rounded=0;" parent="1" vertex="1">
          <mxGeometry x="369" y="205" width="90" height="40" as="geometry" />
        </mxCell>
        <mxCell id="ZttpDixC8CZAMg3ueifD-16" value="LAN&lt;br&gt;    &lt;br/&gt;    192.168.100.0/24" style="text;strokeColor=none;align=center;fillColor=none;html=1;verticalAlign=middle;whiteSpace=wrap;rounded=0;" parent="1" vertex="1">
          <mxGeometry x="610" y="385" width="90" height="40" as="geometry" />
        </mxCell>
        <mxCell id="ZttpDixC8CZAMg3ueifD-17" value="Public DNS" style="text;strokeColor=none;align=center;fillColor=none;html=1;verticalAlign=middle;whiteSpace=wrap;rounded=0;" parent="1" vertex="1">
          <mxGeometry x="120" y="160" width="60" height="30" as="geometry" />
        </mxCell>
        <mxCell id="ZttpDixC8CZAMg3ueifD-18" value="Firewall" style="text;strokeColor=none;align=center;fillColor=none;html=1;verticalAlign=middle;whiteSpace=wrap;rounded=0;" parent="1" vertex="1">
          <mxGeometry x="350" y="330" width="60" height="30" as="geometry" />
        </mxCell>
        <mxCell id="ZttpDixC8CZAMg3ueifD-19" value="" style="shape=image;html=1;verticalAlign=top;verticalLabelPosition=bottom;labelBackgroundColor=#ffffff;imageAspect=0;aspect=fixed;image=https://cdn4.iconfinder.com/data/icons/crime-and-security-24/64/57-128.png" parent="1" vertex="1">
          <mxGeometry x="390" y="385" width="40" height="40" as="geometry" />
        </mxCell>
        <mxCell id="ZttpDixC8CZAMg3ueifD-28" style="rounded=0;orthogonalLoop=1;jettySize=auto;html=1;exitX=0.55;exitY=0.95;exitDx=0;exitDy=0;exitPerimeter=0;endArrow=none;endFill=0;" parent="1" source="ZttpDixC8CZAMg3ueifD-4" target="ZttpDixC8CZAMg3ueifD-29" edge="1">
          <mxGeometry relative="1" as="geometry">
            <mxPoint x="141" y="439" as="sourcePoint" />
          </mxGeometry>
        </mxCell>
        <mxCell id="ZttpDixC8CZAMg3ueifD-32" value="" style="sketch=0;pointerEvents=1;shadow=0;dashed=0;html=1;strokeColor=none;fillColor=#505050;labelPosition=center;verticalLabelPosition=bottom;verticalAlign=top;outlineConnect=0;align=center;shape=mxgraph.office.devices.workstation;" parent="1" vertex="1">
          <mxGeometry x="364" y="-20" width="80" height="90" as="geometry" />
        </mxCell>
        <mxCell id="ZttpDixC8CZAMg3ueifD-37" value="&lt;div&gt;Management&lt;/div&gt;&lt;div&gt;Host&lt;br&gt;&lt;/div&gt;" style="text;html=1;strokeColor=none;fillColor=none;align=center;verticalAlign=middle;whiteSpace=wrap;rounded=0;" parent="1" vertex="1">
          <mxGeometry x="364" y="-50" width="60" height="30" as="geometry" />
        </mxCell>
        <mxCell id="ZttpDixC8CZAMg3ueifD-38" value="" style="image;points=[];aspect=fixed;html=1;align=center;shadow=0;dashed=0;image=img/lib/allied_telesis/computer_and_terminals/Server_Desktop.svg;" parent="1" vertex="1">
          <mxGeometry x="-10.469999999999985" y="230" width="80.47" height="102" as="geometry" />
        </mxCell>
        <mxCell id="ZttpDixC8CZAMg3ueifD-39" value="" style="image;aspect=fixed;html=1;points=[];align=center;fontSize=12;image=img/lib/azure2/networking/DNS_Zones.svg;" parent="1" vertex="1">
          <mxGeometry x="29.77000000000001" y="270" width="30" height="30" as="geometry" />
        </mxCell>
        <mxCell id="ZttpDixC8CZAMg3ueifD-40" value="&lt;div&gt;Corp&lt;/div&gt;&lt;div&gt;&amp;nbsp;DNS&lt;/div&gt;" style="text;strokeColor=none;align=center;fillColor=none;html=1;verticalAlign=middle;whiteSpace=wrap;rounded=0;" parent="1" vertex="1">
          <mxGeometry x="-10" y="200" width="60" height="30" as="geometry" />
        </mxCell>
        <mxCell id="ZttpDixC8CZAMg3ueifD-44" value="" style="image;points=[];aspect=fixed;html=1;align=center;shadow=0;dashed=0;image=img/lib/allied_telesis/computer_and_terminals/Server_Desktop.svg;" parent="1" vertex="1">
          <mxGeometry x="500.00000000000006" y="70" width="80.47" height="102" as="geometry" />
        </mxCell>
        <mxCell id="ZttpDixC8CZAMg3ueifD-45" value="" style="html=1;verticalLabelPosition=bottom;align=center;labelBackgroundColor=#ffffff;verticalAlign=top;strokeWidth=2;strokeColor=#0080F0;shadow=0;dashed=0;shape=mxgraph.ios7.icons.video_conversation;" parent="1" vertex="1">
          <mxGeometry x="540" y="113.5" width="30" height="15" as="geometry" />
        </mxCell>
        <mxCell id="ZttpDixC8CZAMg3ueifD-47" value="VideoServer" style="text;strokeColor=none;align=center;fillColor=none;html=1;verticalAlign=middle;whiteSpace=wrap;rounded=0;" parent="1" vertex="1">
          <mxGeometry x="510.24" y="50" width="60" height="30" as="geometry" />
        </mxCell>
        <mxCell id="3g1q_-ZsU1hOk7NLVg47-1" value="" style="image;points=[];aspect=fixed;html=1;align=center;shadow=0;dashed=0;image=img/lib/allied_telesis/computer_and_terminals/Server_Desktop.svg;" parent="1" vertex="1">
          <mxGeometry x="699.53" y="234" width="80.47" height="102" as="geometry" />
        </mxCell>
        <mxCell id="3g1q_-ZsU1hOk7NLVg47-3" value="AdminPC&lt;br&gt;(ghostagent)" style="text;strokeColor=none;align=center;fillColor=none;html=1;verticalAlign=middle;whiteSpace=wrap;rounded=0;" parent="1" vertex="1">
          <mxGeometry x="720" y="204" width="60" height="30" as="geometry" />
        </mxCell>
        <mxCell id="3g1q_-ZsU1hOk7NLVg47-4" value="" style="fontColor=#0066CC;verticalAlign=top;verticalLabelPosition=bottom;labelPosition=center;align=center;html=1;outlineConnect=0;fillColor=#CCCCCC;strokeColor=#6881B3;gradientColor=none;gradientDirection=north;strokeWidth=2;shape=mxgraph.networks.security_camera;" parent="1" vertex="1">
          <mxGeometry x="540.47" y="255" width="40" height="35" as="geometry" />
        </mxCell>
        <mxCell id="3g1q_-ZsU1hOk7NLVg47-7" value="Webcam" style="text;strokeColor=none;align=center;fillColor=none;html=1;verticalAlign=middle;whiteSpace=wrap;rounded=0;" parent="1" vertex="1">
          <mxGeometry x="540" y="205" width="60" height="30" as="geometry" />
        </mxCell>
        <mxCell id="4Ppa1fYGH7RmJf0bFfZo-1" value="" style="group" parent="1" vertex="1" connectable="0">
          <mxGeometry x="700" y="470" width="89.99999999999999" height="90" as="geometry" />
        </mxCell>
        <mxCell id="ZttpDixC8CZAMg3ueifD-29" value="" style="shape=image;html=1;verticalAlign=top;verticalLabelPosition=bottom;labelBackgroundColor=#ffffff;imageAspect=0;aspect=fixed;image=https://cdn0.iconfinder.com/data/icons/kameleon-free-pack/110/Hacker-128.png" parent="4Ppa1fYGH7RmJf0bFfZo-1" vertex="1">
          <mxGeometry width="90" height="90" as="geometry" />
        </mxCell>
        <mxCell id="ZttpDixC8CZAMg3ueifD-30" value="Attacker" style="text;strokeColor=none;align=center;fillColor=none;html=1;verticalAlign=middle;whiteSpace=wrap;rounded=0;" parent="4Ppa1fYGH7RmJf0bFfZo-1" vertex="1">
          <mxGeometry x="10" width="60" height="30" as="geometry" />
        </mxCell>
        <mxCell id="4Ppa1fYGH7RmJf0bFfZo-2" value="" style="image;points=[];aspect=fixed;html=1;align=center;shadow=0;dashed=0;image=img/lib/allied_telesis/computer_and_terminals/Server_Desktop.svg;" parent="1" vertex="1">
          <mxGeometry x="795" y="335" width="80.47" height="102" as="geometry" />
        </mxCell>
        <mxCell id="4Ppa1fYGH7RmJf0bFfZo-3" value="GhostsServer" style="text;strokeColor=none;align=center;fillColor=none;html=1;verticalAlign=middle;whiteSpace=wrap;rounded=0;" parent="1" vertex="1">
          <mxGeometry x="815.47" y="305" width="60" height="30" as="geometry" />
        </mxCell>
        <mxCell id="4Ppa1fYGH7RmJf0bFfZo-4" style="rounded=0;orthogonalLoop=1;jettySize=auto;html=1;exitX=0.875;exitY=0.5;exitDx=0;exitDy=0;exitPerimeter=0;endArrow=none;endFill=0;" parent="1" source="ZttpDixC8CZAMg3ueifD-4" edge="1">
          <mxGeometry relative="1" as="geometry">
            <mxPoint x="684" y="376" as="sourcePoint" />
            <mxPoint x="787" y="393" as="targetPoint" />
          </mxGeometry>
        </mxCell>
      </root>
    </mxGraphModel>
  </diagram>
</mxfile>
